inDegrees=yes
name=ik_data_2024_11_07_19_01
DataType=double
version=3
OpenSimVersion=4.5.1
endheader
time	pelvis_tilt	pelvis_list	pelvis_rotation	pelvis_tx	pelvis_ty	pelvis_tz	hip_flexion_r	hip_adduction_r	hip_rotation_r	knee_angle_r	knee_angle_r_beta	ankle_angle_r	subtalar_angle_r	mtp_angle_r	hip_flexion_l	hip_adduction_l	hip_rotation_l	knee_angle_l	knee_angle_l_beta	ankle_angle_l	subtalar_angle_l	mtp_angle_l	lumbar_extension	lumbar_bending	lumbar_rotation	arm_flex_r	arm_add_r	arm_rot_r	elbow_flex_r	pro_sup_r	wrist_flex_r	wrist_dev_r	arm_flex_l	arm_add_l	arm_rot_l	elbow_flex_l	pro_sup_l	wrist_flex_l	wrist_dev_l
0	-0.01258038375618172	0.00356668093429438	-11.2205004506662	0	0.9399999999999999	0	0.2888882584352772	-0.008048266839128465	-0.08407558038061209	0.5344607733893775	0.009328100218399931	-5.105421404329724	0	0	0.2885613097978486	-0.01398787104259523	-0.08582140038104356	0.5327428811309799	0.009298117342296372	-5.105421404329724	0	0	0	0	0	0	-3.995478311463017	0	59.62813543441437	51.01545653935553	0	0	0	-3.995478311463017	0	59.62813543441437	51.01545653935553	0	0
0.04368	-0.02484707764217173	0.04249120475974032	-11.01560942482281	0	0.9399999999999999	0	0.312443906945092	-0.05808774213094001	-0.2853430403055052	0.5306104564981885	0.00926089951140353	-5.105260314589521	0	0	0.3019422119513472	0.02744990954731677	0.1261631627931765	0.5185196803624412	0.009049875658713184	-5.105260314589521	0	0	0	0	0	0	-3.997436083939299	0	59.63361508657877	51.00974012383068	0	0	0	-3.997436083939299	0	59.63361508657877	51.00974012383068	0	0
0.07743999999999999	-0.02617558064911223	0.01854009035816144	-11.14398405856784	0	0.9399999999999999	0	0.3614467434815015	-0.04089345885811861	-0.1511626959840672	0.5302567019934955	0.009254725330552877	-5.105141831048213	0	0	0.2943011833977157	0.004767229809217317	0.002268767106487718	0.5118432983825479	0.008933350811043229	-5.105141831048213	0	0	0	0	0	0	-3.99886667622365	0	59.63762898456923	51.00554052330082	0	0	0	-3.99886667622365	0	59.63762898456923	51.00554052330082	0	0
0.12918	-0.005096265792706697	-0.03484774937615601	-11.41828016704563	0	0.9399999999999999	0	0.2959206241150391	-0.008084826818575306	0.1206785923100475	0.5337493896017395	0.00931568422906034	-5.10499212491148	0	0	0.2701625902367066	-0.0457804887919594	-0.275916622053785	0.5199015190135726	0.009073993292906745	-5.10499212491148	0	0	0	0	0	0	-4.000696304028383	0	59.64274159652783	51.00022019807593	0	0	0	-4.000696304028383	0	59.64274159652783	51.00022019807593	0	0
0.17773	0.01345793424768586	-0.06421623842416908	-11.57186194160893	0	0.9399999999999999	0	0.2527197705406831	0.008532692117830521	0.2756351302817278	0.5217684623096492	0.009106577600371316	-5.1048552741821	0	0	0.2494625199615484	-0.07214466852070862	-0.4299229319500902	0.5191898473986304	0.009061572280033016	-5.1048552741821	0	0	0	0	0	0	-4.002388288843089	0	59.64746173189141	50.99533509447573	0	0	0	-4.002388288843089	0	59.64746173189141	50.99533509447573	0	0
0.21708	0.05300588365210964	-0.04453705962936316	-11.49928723836201	0	0.9399999999999999	0	0.2357477510340719	-0.02920984810321317	0.2051017542384525	0.5160164066223517	0.009006185289869909	-5.104724368914985	0	0	0.2052536482172366	-0.04875822480356404	-0.3471260147247671	0.5145358155326456	0.008980344100478847	-5.104724368914985	0	0	0	0	0	0	-4.003991607295058	0	59.65194768837766	50.99067253775132	0	0	0	-4.003991607295058	0	59.65194768837766	50.99067253775132	0	0
0.26119	0.06196587865436046	-0.0493206127595718	-11.4889536333068	0	0.9399999999999999	0	0.2816026167950122	-0.02092563341745658	0.1905482987830065	0.5423337216442269	0.009465509087286194	-5.104690337223873	0	0	0.2007233816004884	-0.044806521887866	-0.3595552346376459	0.5382192902202545	0.009393698712090358	-5.104690337223873	0	0	0	0	0	0	-4.004417480638235	0	59.65313137967149	50.98945408539774	0	0	0	-4.004417480638235	0	59.65313137967149	50.98945408539774	0	0
0.323	0.02582178159936305	-0.04323870498773605	-11.46545148548169	0	0.9399999999999999	0	0.3296490401042628	-0.002560180280357515	0.1706330341532046	0.5221612408709367	0.00911343287949703	-5.104584956960602	0	0	0.229777994303925	-0.04972045317930223	-0.3230884452539646	0.5019441841020978	0.008760578673818185	-5.104584956960602	0	0	0	0	0	0	-4.005698348422105	0	59.65672809654787	50.98570318625401	0	0	0	-4.005698348422105	0	59.65672809654787	50.98570318625401	0	0
